<svg id="e2de1371-d379-4b0f-bcd0-87a55f7b8ff5" data-name="Ebene 1" xmlns="http://www.w3.org/2000/svg" viewBox="0 0 464.27 139.28"><path d="M25.8,22.8v15H43.09v9H25.8V72.39H13.47V13.8H43.9v9Z" fill="#3C3C3C"/><path d="M78.66,72.35l-3.24-13H58.7l-3.33,13H43.28l16.23-58.6H75.66l15.91,58.6ZM66.81,25,61.05,50.52H72.9Z" fill="#3C3C3C"/><path d="M116.24,73q-7.06,0-11-2.39a15,15,0,0,1-5.88-6.49A26.75,26.75,0,0,1,97,54.58c-.28-3.63-.41-7.44-.41-11.44s.13-8,.41-11.69a27.21,27.21,0,0,1,2.35-9.66,14.69,14.69,0,0,1,6-6.53q4-2.4,11.44-2.4,17,0,17,17.37v2h-12V31q0-9.16-5.84-9.17a5.06,5.06,0,0,0-4,1.62A10.48,10.48,0,0,0,109.87,28a36.81,36.81,0,0,0-.85,7q-.17,4.1-.17,9.05,0,4.38.17,8.07a30.64,30.64,0,0,0,.85,6.37A9.14,9.14,0,0,0,112,62.65a5.37,5.37,0,0,0,4.06,1.51A5,5,0,0,0,119.61,63a7.24,7.24,0,0,0,1.87-2.92,15.36,15.36,0,0,0,.77-3.78c.1-1.35.16-2.57.16-3.65H134.5v1.7Q134.5,73,116.24,73Z" fill="#3C3C3C"/><path d="M169.08,72.35V46.54H155.2V72.35H142.86V13.75H155.2V37h13.88V13.75h12.33v58.6Z" fill="#3C3C3C"/><path d="M228.49,56.53a19.08,19.08,0,0,1-1.51,8,13,13,0,0,1-4.18,5.2,17.46,17.46,0,0,1-6.37,2.8,36.34,36.34,0,0,1-8.07.85,29.23,29.23,0,0,1-7.31-.85,15.16,15.16,0,0,1-5.6-2.72,12.13,12.13,0,0,1-3.61-4.79A17.79,17.79,0,0,1,190.58,58V54.25H203V55.8q0,4.62,1.54,6.69c1,1.38,2.73,2.07,5.12,2.07a5.92,5.92,0,0,0,6.49-6.49,7.3,7.3,0,0,0-1.06-4,10.13,10.13,0,0,0-3.49-3.12l-6.81-4.14q-3.49-2.11-6-3.9a23.39,23.39,0,0,1-4.14-3.73,12.34,12.34,0,0,1-2.43-4.42,21.68,21.68,0,0,1-.86-5.89,16.33,16.33,0,0,1,1.42-7.47,13.15,13.15,0,0,1,4.18-5,17.9,17.9,0,0,1,6.21-2.76,32.42,32.42,0,0,1,7.51-.85q17,0,17,14.93v2.68h-12V28.93q0-7.55-5.92-7.55a5.52,5.52,0,0,0-4.3,1.79,6.7,6.7,0,0,0-1.63,4.71q0,4,4,6.41l11.61,7.38a40.25,40.25,0,0,1,4,2.89,13.05,13.05,0,0,1,4.47,7A20,20,0,0,1,228.49,56.53Z" fill="#3C3C3C"/><path d="M256.08,73q-7.06,0-11-2.39a15,15,0,0,1-5.88-6.49,26.75,26.75,0,0,1-2.36-9.54q-.41-5.44-.4-11.44,0-6.18.4-11.69a27.21,27.21,0,0,1,2.36-9.66,14.72,14.72,0,0,1,6-6.53q4.06-2.4,11.45-2.4,17,0,17,17.37v2h-12V31q0-9.16-5.84-9.17a5,5,0,0,0-4,1.62A10.48,10.48,0,0,0,249.71,28a36.81,36.81,0,0,0-.85,7q-.17,4.1-.17,9.05,0,4.38.17,8.07a30.64,30.64,0,0,0,.85,6.37,9,9,0,0,0,2.15,4.18,5.36,5.36,0,0,0,4.06,1.51A5,5,0,0,0,259.45,63a7.12,7.12,0,0,0,1.86-2.92,14.91,14.91,0,0,0,.78-3.78c.1-1.35.16-2.57.16-3.65h12.09v1.7Q274.34,73,256.08,73Z" fill="#3C3C3C"/><path d="M308.91,72.35V46.54H295V72.35H282.7V13.75H295V37h13.87V13.75h12.34v58.6Z" fill="#3C3C3C"/><path d="M362.81,72.35l-3.25-13H342.84l-3.33,13H327.42l16.23-58.6H359.8l15.91,58.6ZM351,25l-5.77,25.48H357Z" fill="#3C3C3C"/><path d="M393.56,22.76v15h17.29v9H393.56V72.35H381.23V13.75h30.43v9Z" fill="#3C3C3C"/><path d="M441.48,23.25v49.1H429.06V23.25H415.58v-9.5h39.53v9.5Z" fill="#3C3C3C"/><path d="M42.69,105.76a81.44,81.44,0,0,1-.45,8.91,16.58,16.58,0,0,1-2.11,6.69,10.47,10.47,0,0,1-4.88,4.2A22.16,22.16,0,0,1,26.42,127H13.47V83.68H27.38a18.39,18.39,0,0,1,8.4,1.59,10.58,10.58,0,0,1,4.6,4.47,18.68,18.68,0,0,1,1.92,7C42.55,99.42,42.69,102.44,42.69,105.76Zm-9.06.18c0-1.88,0-3.54-.1-5a35.61,35.61,0,0,0-.32-3.75,23.22,23.22,0,0,0-.58-2.73,7.19,7.19,0,0,0-.87-2,3.84,3.84,0,0,0-2.25-1.68,15.41,15.41,0,0,0-4.4-.48h-2.4v29.88h1.73q1.68,0,2.82-.09a9.84,9.84,0,0,0,2-.33,4.05,4.05,0,0,0,1.35-.66,5.92,5.92,0,0,0,1-1.08,7.48,7.48,0,0,0,.92-1.74,13.62,13.62,0,0,0,.64-2.46q.23-1.44.36-3.36C33.58,109.22,33.63,107.7,33.63,105.94Z" fill="#3C3C3C"/><path d="M49.94,127V83.68H59V127Z" fill="#3C3C3C"/><path d="M92.19,126.58c-1.53.28-3.08.51-4.68.69a42.51,42.51,0,0,1-4.74.27,33.35,33.35,0,0,1-4.41-.3,16.73,16.73,0,0,1-4.26-1.14,12.57,12.57,0,0,1-3.6-2.25A9.48,9.48,0,0,1,68,120.16a25.38,25.38,0,0,1-.84-2.76,25.72,25.72,0,0,1-.57-3.24c-.15-1.2-.24-2.57-.3-4.11s-.09-3.31-.09-5.31a82.41,82.41,0,0,1,.39-8.31,20.28,20.28,0,0,1,1.92-7.08,11.69,11.69,0,0,1,4.59-4.92c2-1.22,4.83-1.83,8.4-1.83q6.72,0,10.35,3.36t3.63,9.6V96.7h-9V94.6a5.65,5.65,0,0,0-1.44-4.08A4.93,4.93,0,0,0,81.33,89,4.56,4.56,0,0,0,78,90.16a6.82,6.82,0,0,0-1.8,3.12A18.37,18.37,0,0,0,75.51,98c-.09,1.82-.12,3.77-.12,5.85v1.86c0,2.32,0,4.43.12,6.33a18.66,18.66,0,0,0,.75,4.86A6.41,6.41,0,0,0,78.21,120a5.58,5.58,0,0,0,3.72,1.11,13,13,0,0,0,4.62-.84v-9.54h-5V104H95.49v22Z" fill="#3C3C3C"/><path d="M103.28,127V83.68h9.06V127Z" fill="#3C3C3C"/><path d="M135.68,90.7V127H126.5V90.7h-10v-7h29.22v7Z" fill="#3C3C3C"/><path d="M169.22,127l-2.4-9.6H154.46L152,127h-8.94l12-43.32H167L178.76,127Zm-8.76-35-4.26,18.84H165Z" fill="#3C3C3C"/><path d="M183,127V83.68h9.18V119.8h13.44V127Z" fill="#3C3C3C"/><path d="M209.66,127V83.68H233.3v6.66H218.72V101h13.44v6.66H218.72v12.54h15.06V127Z" fill="#3C3C3C"/><path d="M292.52,127V93.58L284.06,127h-8.64l-8-33.42V127H258.8V83.68h14.34L280,113.14l7.26-29.46h14.1V127Z" fill="#3C3C3C"/><path d="M309,127V83.68H332.6v6.66H318V101h13.44v6.66H318v12.54h15.06V127Z" fill="#3C3C3C"/><path d="M368.36,105.76a79,79,0,0,1-.45,8.91,16.58,16.58,0,0,1-2.1,6.69,10.45,10.45,0,0,1-4.89,4.2A22.14,22.14,0,0,1,352.1,127h-13V83.68h13.92a18.41,18.41,0,0,1,8.4,1.59,10.55,10.55,0,0,1,4.59,4.47,18.49,18.49,0,0,1,1.92,7Q368.36,100.78,368.36,105.76Zm-9.06.18q0-2.82-.09-5a35.37,35.37,0,0,0-.33-3.75,21.5,21.5,0,0,0-.57-2.73,7.5,7.5,0,0,0-.87-2,3.84,3.84,0,0,0-2.25-1.68,15.53,15.53,0,0,0-4.41-.48h-2.4v29.88h1.74q1.68,0,2.82-.09a9.61,9.61,0,0,0,1.95-.33,4.05,4.05,0,0,0,1.35-.66,5.31,5.31,0,0,0,1-1.08,7.13,7.13,0,0,0,.93-1.74,12.89,12.89,0,0,0,.63-2.46,33.36,33.36,0,0,0,.36-3.36Q359.3,108.58,359.3,105.94Z" fill="#3C3C3C"/><path d="M375.62,127V83.68h9.06V127Z" fill="#3C3C3C"/><path d="M392.3,127V83.68h23.64v6.66H401.36V101H414.8v6.66H401.36v12.54h15.06V127Z" fill="#3C3C3C"/><path d="M443.23,127,431.35,95.32V127H423V83.68h12.18l11.58,30v-30h8.4V127Z" fill="#3C3C3C"/></svg>