<svg id="b8a7eaad-2b31-482e-875b-4147224ed551" data-name="Ebene 1" xmlns="http://www.w3.org/2000/svg" viewBox="0 0 788.69 325.77"><polygon points="346.87 227.14 346.87 50.34 442.67 26.27 442.67 227.14 346.87 227.14" fill="#c6c6c6"/><polygon points="0.85 227.14 0.85 76.11 150.03 1.51 150.03 227.14 0.85 227.14" fill="#c6c6c6"/><polygon points="160.64 227.14 160.64 0 336.26 50.18 336.26 227.14 160.64 227.14" fill="#fff"/><polygon points="453.45 227.14 453.45 26.77 788.69 129.99 788.69 227.14 453.45 227.14" fill="#fff"/><text x="-25.92" y="-29.34"/><path d="M35.89,274.48v11.1H48.67v6.66H35.89v18.9H26.77V267.82h22.5v6.66Z" transform="translate(-25.92 -29.34)" fill="#fff"/><path d="M75,311.11l-2.4-9.6H60.21l-2.46,9.6H48.81l12-43.32H72.75l11.76,43.32Zm-8.76-35L62,295h8.76Z" transform="translate(-25.92 -29.34)" fill="#fff"/><path d="M102.75,311.59q-5.22,0-8.13-1.77a11.08,11.08,0,0,1-4.35-4.8,19.74,19.74,0,0,1-1.74-7q-.3-4-.3-8.46t.3-8.64a20.14,20.14,0,0,1,1.74-7.14,10.9,10.9,0,0,1,4.44-4.83q3-1.77,8.46-1.77,12.6,0,12.6,12.84v1.5h-8.88v-1q0-6.78-4.32-6.78a3.74,3.74,0,0,0-3,1.2A7.73,7.73,0,0,0,98,278.29a27.67,27.67,0,0,0-.63,5.19q-.12,3-.12,6.69,0,3.24.12,6a23.17,23.17,0,0,0,.63,4.71,6.75,6.75,0,0,0,1.59,3.09,4,4,0,0,0,3,1.11,3.67,3.67,0,0,0,2.61-.87,5.29,5.29,0,0,0,1.38-2.16,11.14,11.14,0,0,0,.57-2.79q.12-1.5.12-2.7h8.94v1.26Q116.25,311.59,102.75,311.59Z" transform="translate(-25.92 -29.34)" fill="#fff"/><path d="M141.81,311.11V292H131.55v19.08h-9.12V267.79h9.12V285h10.26V267.79h9.12v43.32Z" transform="translate(-25.92 -29.34)" fill="#fff"/><path d="M185.73,299.41a14.12,14.12,0,0,1-1.11,5.94,9.65,9.65,0,0,1-3.09,3.84,12.8,12.8,0,0,1-4.71,2.07,26.55,26.55,0,0,1-6,.63,21.29,21.29,0,0,1-5.4-.63,11.11,11.11,0,0,1-4.14-2,8.94,8.94,0,0,1-2.67-3.54,13.17,13.17,0,0,1-.93-5.22v-2.76h9.18v1.14q0,3.42,1.14,4.95a4.41,4.41,0,0,0,3.78,1.53,4.38,4.38,0,0,0,4.8-4.8,5.43,5.43,0,0,0-.78-3,7.6,7.6,0,0,0-2.58-2.31l-5-3.06q-2.58-1.56-4.41-2.88a17.32,17.32,0,0,1-3.06-2.76,9.19,9.19,0,0,1-1.8-3.27,16,16,0,0,1-.63-4.35,12,12,0,0,1,1.05-5.52,9.6,9.6,0,0,1,3.09-3.69,13.14,13.14,0,0,1,4.59-2,23.59,23.59,0,0,1,5.55-.63q12.6,0,12.6,11v2h-8.88V279q0-5.58-4.38-5.58a4.09,4.09,0,0,0-3.18,1.32,5,5,0,0,0-1.2,3.48,5.39,5.39,0,0,0,2.94,4.74l8.58,5.46a29.63,29.63,0,0,1,2.94,2.13,10.18,10.18,0,0,1,2.07,2.31,9.91,9.91,0,0,1,1.23,2.85A14.52,14.52,0,0,1,185.73,299.41Z" transform="translate(-25.92 -29.34)" fill="#fff"/><path d="M206.13,311.59q-5.22,0-8.13-1.77a11.08,11.08,0,0,1-4.35-4.8,19.74,19.74,0,0,1-1.74-7q-.3-4-.3-8.46t.3-8.64a20.14,20.14,0,0,1,1.74-7.14,10.9,10.9,0,0,1,4.44-4.83q3-1.77,8.46-1.77,12.6,0,12.6,12.84v1.5h-8.88v-1q0-6.78-4.32-6.78a3.74,3.74,0,0,0-3,1.2,7.73,7.73,0,0,0-1.56,3.36,27.67,27.67,0,0,0-.63,5.19q-.12,3-.12,6.69,0,3.24.12,6a23.17,23.17,0,0,0,.63,4.71,6.75,6.75,0,0,0,1.59,3.09,4,4,0,0,0,3,1.11,3.67,3.67,0,0,0,2.61-.87A5.29,5.29,0,0,0,210,302a11.14,11.14,0,0,0,.57-2.79q.12-1.5.12-2.7h8.94v1.26Q219.63,311.59,206.13,311.59Z" transform="translate(-25.92 -29.34)" fill="#fff"/><path d="M245.19,311.11V292H234.93v19.08h-9.12V267.79h9.12V285h10.26V267.79h9.12v43.32Z" transform="translate(-25.92 -29.34)" fill="#fff"/><path d="M285,311.11l-2.4-9.6H270.27l-2.46,9.6h-8.94l12-43.32h11.94l11.76,43.32Zm-8.76-35L272,295h8.76Z" transform="translate(-25.92 -29.34)" fill="#fff"/><path d="M307.77,274.45v11.1h12.78v6.66H307.77v18.9h-9.12V267.79h22.5v6.66Z" transform="translate(-25.92 -29.34)" fill="#fff"/><path d="M343.19,274.81v36.3H334v-36.3h-10v-7h29.22v7Z" transform="translate(-25.92 -29.34)" fill="#fff"/><path d="M402.19,289.87a79,79,0,0,1-.45,8.91,16.58,16.58,0,0,1-2.1,6.69,10.45,10.45,0,0,1-4.89,4.2,22.14,22.14,0,0,1-8.82,1.44H373V267.79h13.92a18.41,18.41,0,0,1,8.4,1.59,10.55,10.55,0,0,1,4.59,4.47,18.49,18.49,0,0,1,1.92,7Q402.19,284.89,402.19,289.87Zm-9.06.18q0-2.82-.09-5a35.37,35.37,0,0,0-.33-3.75,21.5,21.5,0,0,0-.57-2.73,7.5,7.5,0,0,0-.87-2,3.84,3.84,0,0,0-2.25-1.68,15.53,15.53,0,0,0-4.41-.48h-2.4v29.88H384q1.68,0,2.82-.09a9.61,9.61,0,0,0,2-.33,4.05,4.05,0,0,0,1.35-.66,5.31,5.31,0,0,0,1-1.08,7.13,7.13,0,0,0,.93-1.74,12.89,12.89,0,0,0,.63-2.46,33.36,33.36,0,0,0,.36-3.36Q393.13,292.69,393.13,290.05Z" transform="translate(-25.92 -29.34)" fill="#fff"/><path d="M409.45,311.11V267.79h9.06v43.32Z" transform="translate(-25.92 -29.34)" fill="#fff"/><path d="M451.69,310.69q-2.28.42-4.68.69a42.38,42.38,0,0,1-4.74.27,33.35,33.35,0,0,1-4.41-.3,16.73,16.73,0,0,1-4.26-1.14A12.85,12.85,0,0,1,430,308a9.48,9.48,0,0,1-2.49-3.69,27.81,27.81,0,0,1-.84-2.76,25.72,25.72,0,0,1-.57-3.24q-.21-1.8-.3-4.11t-.09-5.31q0-4.32.39-8.31a20.28,20.28,0,0,1,1.92-7.08,11.69,11.69,0,0,1,4.59-4.92q3.06-1.83,8.4-1.83,6.72,0,10.35,3.36t3.63,9.6v1.14h-9v-2.1a5.65,5.65,0,0,0-1.44-4.08,4.93,4.93,0,0,0-3.72-1.5,4.6,4.6,0,0,0-3.3,1.14,7,7,0,0,0-1.8,3.12,19.29,19.29,0,0,0-.72,4.71q-.12,2.73-.12,5.85v1.86q0,3.48.12,6.33a19.09,19.09,0,0,0,.75,4.86,6.49,6.49,0,0,0,1.95,3.12,5.62,5.62,0,0,0,3.72,1.11,13,13,0,0,0,4.62-.84v-9.54h-5v-6.72H455v22Z" transform="translate(-25.92 -29.34)" fill="#fff"/><path d="M462.79,311.11V267.79h9.06v43.32Z" transform="translate(-25.92 -29.34)" fill="#fff"/><path d="M495.19,274.81v36.3H486v-36.3h-10v-7h29.22v7Z" transform="translate(-25.92 -29.34)" fill="#fff"/><path d="M528.73,311.11l-2.4-9.6H514l-2.46,9.6h-8.94l12-43.32h11.94l11.76,43.32Zm-8.76-35L515.71,295h8.76Z" transform="translate(-25.92 -29.34)" fill="#fff"/><path d="M542.53,311.11V267.79h9.18v36.12h13.44v7.2Z" transform="translate(-25.92 -29.34)" fill="#fff"/><path d="M569.16,311.11V267.79H592.8v6.66H578.22v10.68h13.44v6.66H578.22v12.54h15.06v6.78Z" transform="translate(-25.92 -29.34)" fill="#fff"/><path d="M652,311.11V277.69l-8.46,33.42h-8.64l-8-33.42v33.42H618.3V267.79h14.34l6.84,29.46,7.26-29.46h14.1v43.32Z" transform="translate(-25.92 -29.34)" fill="#fff"/><path d="M668.46,311.11V267.79H692.1v6.66H677.52v10.68H691v6.66H677.52v12.54h15.06v6.78Z" transform="translate(-25.92 -29.34)" fill="#fff"/><path d="M727.86,289.87a79,79,0,0,1-.45,8.91,16.58,16.58,0,0,1-2.1,6.69,10.45,10.45,0,0,1-4.89,4.2,22.14,22.14,0,0,1-8.82,1.44h-13V267.79h13.92a18.41,18.41,0,0,1,8.4,1.59,10.55,10.55,0,0,1,4.59,4.47,18.49,18.49,0,0,1,1.92,7Q727.86,284.89,727.86,289.87Zm-9.06.18q0-2.82-.09-5a35.37,35.37,0,0,0-.33-3.75,21.5,21.5,0,0,0-.57-2.73,7.5,7.5,0,0,0-.87-2,3.84,3.84,0,0,0-2.25-1.68,15.53,15.53,0,0,0-4.41-.48h-2.4v29.88h1.74q1.68,0,2.82-.09a9.61,9.61,0,0,0,1.95-.33,4.05,4.05,0,0,0,1.35-.66,5.31,5.31,0,0,0,1-1.08,7.13,7.13,0,0,0,.93-1.74,12.89,12.89,0,0,0,.63-2.46,33.36,33.36,0,0,0,.36-3.36Q718.8,292.69,718.8,290.05Z" transform="translate(-25.92 -29.34)" fill="#fff"/><path d="M735.12,311.11V267.79h9.06v43.32Z" transform="translate(-25.92 -29.34)" fill="#fff"/><path d="M751.8,311.11V267.79h23.64v6.66H760.86v10.68H774.3v6.66H760.86v12.54h15.06v6.78Z" transform="translate(-25.92 -29.34)" fill="#fff"/><path d="M802.73,311.11l-11.88-31.68v31.68h-8.4V267.79h12.18l11.58,30v-30h8.4v43.32Z" transform="translate(-25.92 -29.34)" fill="#fff"/><path d="M43.48,339.18c0,1.93-.06,3.82-.17,5.65a13.73,13.73,0,0,1-1.16,4.92,7.79,7.79,0,0,1-3.08,3.46,11.25,11.25,0,0,1-5.92,1.3H25.92V324.19h8.44a10,10,0,0,1,4.41.86,6.85,6.85,0,0,1,2.8,2.44,10.85,10.85,0,0,1,1.47,3.8,25.81,25.81,0,0,1,.44,4.95Zm-2.82-1.34a35.57,35.57,0,0,0-.37-5.71A8.09,8.09,0,0,0,39,328.64a4.7,4.7,0,0,0-2.54-1.72,14.86,14.86,0,0,0-4.07-.46H28.61v25.79H32a12.94,12.94,0,0,0,4.92-.76A5,5,0,0,0,39.51,349a12.11,12.11,0,0,0,1-4.45Q40.67,341.84,40.66,337.84Z" transform="translate(-25.92 -29.34)" fill="#fff"/><path d="M59.27,354.51V324.19H73v2.27H62V337.8H72.5v2.26H62v12.19H73.3v2.26Z" transform="translate(-25.92 -29.34)" fill="#fff"/><path d="M103.42,331.37a15.22,15.22,0,0,1-.25,3,5.91,5.91,0,0,1-.82,2.12,4.47,4.47,0,0,1-1.49,1.41,7.36,7.36,0,0,1-2.27.84,4.92,4.92,0,0,1,3.28,1.47,6.36,6.36,0,0,1,1,3.78l.16,7,.3,3.57h-2.73c-.06-.39-.11-.86-.15-1.42s-.08-1-.1-1.43l-.09-1.35-.12-5.63a9.33,9.33,0,0,0-.34-2.37,3,3,0,0,0-1-1.49,4.36,4.36,0,0,0-1.78-.78,13.83,13.83,0,0,0-2.73-.23h-4v14.7H87.63V324.19h7.73a21.19,21.19,0,0,1,3.48.25,5.63,5.63,0,0,1,2.52,1,4.63,4.63,0,0,1,1.53,2.18A11.08,11.08,0,0,1,103.42,331.37Zm-2.77-.08a6.17,6.17,0,0,0-.59-3,3.11,3.11,0,0,0-1.62-1.4,6.62,6.62,0,0,0-2.43-.4H90.32v11.09h3.44a23.31,23.31,0,0,0,3-.17,4.57,4.57,0,0,0,2.16-.82,4,4,0,0,0,1.33-1.89A10.52,10.52,0,0,0,100.65,331.29Z" transform="translate(-25.92 -29.34)" fill="#fff"/><path d="M166.73,354.51V340.06H154.81v14.45h-2.69V324.19h2.69V337.8h11.92V324.19h2.69v30.32Z" transform="translate(-25.92 -29.34)" fill="#fff"/><path d="M203.28,340.69c0,1.94-.08,3.77-.23,5.51a13.34,13.34,0,0,1-1.18,4.57,7.53,7.53,0,0,1-2.81,3.16,9.67,9.67,0,0,1-5.15,1.17c-2.94,0-5.16-.89-6.68-2.67S185,348,185,344.52V334.23a17,17,0,0,1,.5-4.25,9.5,9.5,0,0,1,1.62-3.42,7.87,7.87,0,0,1,2.83-2.29,9.44,9.44,0,0,1,4.16-.84,9.65,9.65,0,0,1,4.22.84,7.74,7.74,0,0,1,2.86,2.31,9.45,9.45,0,0,1,1.61,3.51,18.26,18.26,0,0,1,.51,4.43Zm-2.73-5a31.84,31.84,0,0,0-.21-3.72,9.54,9.54,0,0,0-.9-3.17,5.69,5.69,0,0,0-2-2.23,6.06,6.06,0,0,0-3.38-.84,5.9,5.9,0,0,0-3.42.89,5.48,5.48,0,0,0-1.93,2.26,9.56,9.56,0,0,0-.84,3.13,30.81,30.81,0,0,0-.19,3.42v7.65q0,5,1.4,7.37t5,2.37a5.5,5.5,0,0,0,3.86-1.22,6.67,6.67,0,0,0,1.92-3.12,17.43,17.43,0,0,0,.63-4.29c0-1.58.06-3.15.06-4.72Z" transform="translate(-25.92 -29.34)" fill="#fff"/><path d="M234.59,349.68a7.39,7.39,0,0,1-1.53,2.88,7.11,7.11,0,0,1-2.65,1.87,9.64,9.64,0,0,1-3.78.67,8.3,8.3,0,0,1-4.91-1.24,7.12,7.12,0,0,1-2.52-3.21,13.57,13.57,0,0,1-.92-4.43c-.09-1.64-.13-3.27-.13-4.9,0-1.81,0-3.44.06-4.87s.11-2.73.19-3.9q.63-9,8.61-8.95a8.05,8.05,0,0,1,5.76,1.95c1.37,1.31,2,3.38,2,6.24v.59h-2.77c0-.14,0-.27,0-.38a1.57,1.57,0,0,0,0-.29q0-5.83-5.08-5.84a5.18,5.18,0,0,0-3.46,1.05,6,6,0,0,0-1.81,2.62,12.08,12.08,0,0,0-.67,3.45c-.07,1.24-.11,2.41-.11,3.51v8.27a10,10,0,0,0,1.52,5.88,4.91,4.91,0,0,0,4.28,2.14,5.28,5.28,0,0,0,2.71-.63,4.8,4.8,0,0,0,1.68-1.64,6.5,6.5,0,0,0,.84-2.24,13.82,13.82,0,0,0,.23-2.46h2.86V346A13,13,0,0,1,234.59,349.68Z" transform="translate(-25.92 -29.34)" fill="#fff"/><path d="M264.44,354.51V340.06H252.51v14.45h-2.69V324.19h2.69V337.8h11.93V324.19h2.69v30.32Z" transform="translate(-25.92 -29.34)" fill="#fff"/><path d="M298.84,347.29q0,7.72-8.06,7.73a9.3,9.3,0,0,1-6.14-1.87c-1.48-1.25-2.22-3.17-2.22-5.78v-1.26h2.77v.59a9.62,9.62,0,0,0,.38,2.9,4,4,0,0,0,2.9,2.86,9.1,9.1,0,0,0,2.39.29,8.54,8.54,0,0,0,2.18-.25,3.64,3.64,0,0,0,2.67-2.5,8.1,8.1,0,0,0,.36-2.63,8.34,8.34,0,0,0-.19-1.91,4.26,4.26,0,0,0-.71-1.53,7,7,0,0,0-1.45-1.41,25.9,25.9,0,0,0-2.36-1.53l-3.1-1.81a18.25,18.25,0,0,1-2.25-1.47,8.56,8.56,0,0,1-1.7-1.7,6.86,6.86,0,0,1-1.09-2.16,9.23,9.23,0,0,1-.38-2.81,7,7,0,0,1,2.06-5.42,8.44,8.44,0,0,1,5.92-1.89,13.24,13.24,0,0,1,3.27.37,6.28,6.28,0,0,1,2.5,1.26,5.88,5.88,0,0,1,1.6,2.27,9,9,0,0,1,.57,3.41v1H296v-.42a6,6,0,0,0-1.26-4.22,5.3,5.3,0,0,0-4-1.32c-3.48,0-5.21,1.58-5.21,4.74a8.23,8.23,0,0,0,.21,2,4.21,4.21,0,0,0,.75,1.55A7.45,7.45,0,0,0,288,335.7c.61.44,1.37.95,2.29,1.51l3.28,2a28,28,0,0,1,2.67,1.77,7.22,7.22,0,0,1,1.61,1.68,5.38,5.38,0,0,1,.8,2A14.6,14.6,0,0,1,298.84,347.29Z" transform="translate(-25.92 -29.34)" fill="#fff"/><path d="M330,349.68a7.54,7.54,0,0,1-1.54,2.88,7.16,7.16,0,0,1-2.64,1.87,9.71,9.71,0,0,1-3.78.67,8.32,8.32,0,0,1-4.92-1.24,7.12,7.12,0,0,1-2.52-3.21,13.57,13.57,0,0,1-.92-4.43c-.09-1.64-.13-3.27-.13-4.9,0-1.81,0-3.44.07-4.87s.1-2.73.18-3.9q.63-9,8.61-8.95a8,8,0,0,1,5.76,1.95c1.37,1.31,2.06,3.38,2.06,6.24v.59H327.4a2.17,2.17,0,0,1,0-.38c0-.11,0-.21,0-.29q0-5.83-5.09-5.84a5.2,5.2,0,0,0-3.46,1.05,6,6,0,0,0-1.81,2.62,12.43,12.43,0,0,0-.67,3.45c-.07,1.24-.1,2.41-.1,3.51v8.27a10,10,0,0,0,1.51,5.88,4.92,4.92,0,0,0,4.28,2.14,5.25,5.25,0,0,0,2.71-.63,4.64,4.64,0,0,0,1.68-1.64,6.5,6.5,0,0,0,.84-2.24,13,13,0,0,0,.23-2.46h2.86V346A13.4,13.4,0,0,1,330,349.68Z" transform="translate(-25.92 -29.34)" fill="#fff"/><path d="M359.79,354.51V340.06H347.86v14.45h-2.69V324.19h2.69V337.8h11.93V324.19h2.69v30.32Z" transform="translate(-25.92 -29.34)" fill="#fff"/><path d="M395.62,348a10.12,10.12,0,0,1-1.28,3.66,6.79,6.79,0,0,1-2.67,2.5,9.67,9.67,0,0,1-4.53.92c-3,0-5.25-.82-6.68-2.48s-2.14-4-2.14-7V324.19H381v21.42a7.9,7.9,0,0,0,1.64,5.31,5.69,5.69,0,0,0,4.58,1.91,5.84,5.84,0,0,0,3.07-.71,5.11,5.11,0,0,0,1.84-1.91,8,8,0,0,0,.91-2.71,21.07,21.07,0,0,0,.23-3.11v-20.2H396v19.4A28.15,28.15,0,0,1,395.62,348Z" transform="translate(-25.92 -29.34)" fill="#fff"/><path d="M411.67,354.51V324.19h2.69v28.06h10v2.26Z" transform="translate(-25.92 -29.34)" fill="#fff"/><path d="M438.34,354.51V324.19h13.74v2.27H441V337.8h10.54v2.26H441v12.19h11.34v2.26Z" transform="translate(-25.92 -29.34)" fill="#fff"/><path d="M504.71,326.46V337.8h9.41v2.26h-9.41v14.45H502V324.19h12.85v2.27Z" transform="translate(-25.92 -29.34)" fill="#fff"/><path d="M545.62,348a10.31,10.31,0,0,1-1.28,3.66,6.79,6.79,0,0,1-2.67,2.5,9.67,9.67,0,0,1-4.53.92c-3,0-5.25-.82-6.68-2.48a10.31,10.31,0,0,1-2.15-7V324.19H531v21.42a7.9,7.9,0,0,0,1.64,5.31,5.69,5.69,0,0,0,4.58,1.91,5.84,5.84,0,0,0,3.07-.71,5.19,5.19,0,0,0,1.84-1.91,8,8,0,0,0,.91-2.71,21.07,21.07,0,0,0,.23-3.11v-20.2H546v19.4A28.15,28.15,0,0,1,545.62,348Z" transform="translate(-25.92 -29.34)" fill="#fff"/><path d="M577.5,331.37a15.22,15.22,0,0,1-.25,3,5.91,5.91,0,0,1-.82,2.12,4.38,4.38,0,0,1-1.49,1.41,7.36,7.36,0,0,1-2.27.84,4.92,4.92,0,0,1,3.28,1.47,6.36,6.36,0,0,1,1,3.78l.17,7,.29,3.57h-2.73c-.06-.39-.11-.86-.15-1.42s-.08-1-.1-1.43l-.09-1.35-.12-5.63a8.91,8.91,0,0,0-.34-2.37,2.92,2.92,0,0,0-1-1.49,4.36,4.36,0,0,0-1.78-.78,13.83,13.83,0,0,0-2.73-.23h-4v14.7h-2.69V324.19h7.73a21.11,21.11,0,0,1,3.48.25,5.63,5.63,0,0,1,2.52,1,4.58,4.58,0,0,1,1.54,2.18A11.1,11.1,0,0,1,577.5,331.37Zm-2.77-.08a6.17,6.17,0,0,0-.59-3,3.11,3.11,0,0,0-1.62-1.4,6.58,6.58,0,0,0-2.43-.4H564.4v11.09h3.44a23.31,23.31,0,0,0,3-.17,4.61,4.61,0,0,0,2.17-.82,4,4,0,0,0,1.32-1.89A10.52,10.52,0,0,0,574.73,331.29Z" transform="translate(-25.92 -29.34)" fill="#fff"/><path d="M600.52,326.46v28.05h-2.69V326.46h-7.35v-2.27h17.39v2.27Z" transform="translate(-25.92 -29.34)" fill="#fff"/><path d="M645.55,354.51H642l-6.13-27-6.3,27h-3.36l-7.31-30.32h2.86L628,350.94l6.22-26.75h3.65l6.09,26.58,6.51-26.58h2.65Z" transform="translate(-25.92 -29.34)" fill="#fff"/><path d="M681.76,354.51l-2.44-8H667.43l-2.39,8h-2.69l9.58-30.32h3.19l9.45,30.32Zm-8.36-27.38-5.17,17.14h10.38Z" transform="translate(-25.92 -29.34)" fill="#fff"/><path d="M713.43,354.51,701,327.21v27.3h-2.65V324.19h4.12L715,351.49v-27.3h2.65v30.32Z" transform="translate(-25.92 -29.34)" fill="#fff"/><path d="M748.46,332v-.46a5.81,5.81,0,0,0-1.43-4.18,5.28,5.28,0,0,0-4-1.49,8.17,8.17,0,0,0-3.17.56,4.74,4.74,0,0,0-2.14,1.83,9,9,0,0,0-1.2,3.26,26.64,26.64,0,0,0-.38,4.85v4.2c0,2,.08,3.75.23,5.29a11.62,11.62,0,0,0,1,3.86,5.35,5.35,0,0,0,2.14,2.36,7.53,7.53,0,0,0,3.74.79,12.45,12.45,0,0,0,5-1v-11h-6.17v-2.18h8.82v15.08a28.19,28.19,0,0,1-3.83,1,20.9,20.9,0,0,1-3.9.38,11.45,11.45,0,0,1-5.48-1.09,7,7,0,0,1-3-3,12.21,12.21,0,0,1-1.2-4.52c-.15-1.73-.23-3.6-.23-5.59v-3.14q0-2.7.21-5.25a13.06,13.06,0,0,1,1.15-4.56,7.39,7.39,0,0,1,2.88-3.19,10.27,10.27,0,0,1,5.42-1.2,11.47,11.47,0,0,1,3.88.57,6,6,0,0,1,2.55,1.66,6.48,6.48,0,0,1,1.38,2.64,13.56,13.56,0,0,1,.42,3.53Z" transform="translate(-25.92 -29.34)" fill="#fff"/><path d="M767.32,354.51V324.19h13.74v2.27H770V337.8h10.54v2.26H770v12.19h11.34v2.26Z" transform="translate(-25.92 -29.34)" fill="#fff"/><path d="M810.41,354.51,798,327.21v27.3h-2.64V324.19h4.11L812,351.49v-27.3h2.64v30.32Z" transform="translate(-25.92 -29.34)" fill="#fff"/></svg>